<mxfile host="app.diagrams.net" agent="Mozilla/5.0 (Windows NT 10.0; Win64; x64) AppleWebKit/537.36 (KHTML, like Gecko) Chrome/134.0.0.0 Safari/537.36" version="26.2.14">
  <diagram name="Page-1" id="Fsl2NmO5ZkDEx8LPRr8b">
    <mxGraphModel dx="1038" dy="605" grid="1" gridSize="10" guides="1" tooltips="1" connect="1" arrows="1" fold="1" page="1" pageScale="1" pageWidth="850" pageHeight="1100" math="0" shadow="0">
      <root>
        <mxCell id="0" />
        <mxCell id="1" parent="0" />
        <mxCell id="vNEHH-DYMuVMHKYgHkYS-1" value="Recent commits to cigar data" style="swimlane;fontStyle=1;align=center;verticalAlign=top;childLayout=stackLayout;horizontal=1;startSize=26;horizontalStack=0;resizeParent=1;resizeParentMax=0;resizeLast=0;collapsible=1;marginBottom=0;whiteSpace=wrap;html=1;" vertex="1" parent="1">
          <mxGeometry x="1240" y="240" width="260" height="120" as="geometry" />
        </mxCell>
        <mxCell id="vNEHH-DYMuVMHKYgHkYS-2" value="1. abc" style="text;strokeColor=none;fillColor=none;align=left;verticalAlign=top;spacingLeft=4;spacingRight=4;overflow=hidden;rotatable=0;points=[[0,0.5],[1,0.5]];portConstraint=eastwest;whiteSpace=wrap;html=1;" vertex="1" parent="vNEHH-DYMuVMHKYgHkYS-1">
          <mxGeometry y="26" width="260" height="26" as="geometry" />
        </mxCell>
        <mxCell id="vNEHH-DYMuVMHKYgHkYS-3" value="" style="line;strokeWidth=1;fillColor=none;align=left;verticalAlign=middle;spacingTop=-1;spacingLeft=3;spacingRight=3;rotatable=0;labelPosition=right;points=[];portConstraint=eastwest;strokeColor=inherit;" vertex="1" parent="vNEHH-DYMuVMHKYgHkYS-1">
          <mxGeometry y="52" width="260" height="8" as="geometry" />
        </mxCell>
        <mxCell id="vNEHH-DYMuVMHKYgHkYS-4" value="2. ghi" style="text;strokeColor=none;fillColor=none;align=left;verticalAlign=top;spacingLeft=4;spacingRight=4;overflow=hidden;rotatable=0;points=[[0,0.5],[1,0.5]];portConstraint=eastwest;whiteSpace=wrap;html=1;" vertex="1" parent="vNEHH-DYMuVMHKYgHkYS-1">
          <mxGeometry y="60" width="260" height="26" as="geometry" />
        </mxCell>
        <mxCell id="vNEHH-DYMuVMHKYgHkYS-5" value="" style="line;strokeWidth=1;fillColor=none;align=left;verticalAlign=middle;spacingTop=-1;spacingLeft=3;spacingRight=3;rotatable=0;labelPosition=right;points=[];portConstraint=eastwest;strokeColor=inherit;" vertex="1" parent="vNEHH-DYMuVMHKYgHkYS-1">
          <mxGeometry y="86" width="260" height="8" as="geometry" />
        </mxCell>
        <mxCell id="vNEHH-DYMuVMHKYgHkYS-6" value="2. jkl" style="text;strokeColor=none;fillColor=none;align=left;verticalAlign=top;spacingLeft=4;spacingRight=4;overflow=hidden;rotatable=0;points=[[0,0.5],[1,0.5]];portConstraint=eastwest;whiteSpace=wrap;html=1;" vertex="1" parent="vNEHH-DYMuVMHKYgHkYS-1">
          <mxGeometry y="94" width="260" height="26" as="geometry" />
        </mxCell>
        <mxCell id="vNEHH-DYMuVMHKYgHkYS-7" value="All Recent Commits" style="swimlane;fontStyle=1;align=center;verticalAlign=top;childLayout=stackLayout;horizontal=1;startSize=26;horizontalStack=0;resizeParent=1;resizeParentMax=0;resizeLast=0;collapsible=1;marginBottom=0;whiteSpace=wrap;html=1;" vertex="1" parent="1">
          <mxGeometry x="940" y="240" width="260" height="120" as="geometry" />
        </mxCell>
        <mxCell id="vNEHH-DYMuVMHKYgHkYS-8" value="1. abc" style="text;strokeColor=none;fillColor=none;align=left;verticalAlign=top;spacingLeft=4;spacingRight=4;overflow=hidden;rotatable=0;points=[[0,0.5],[1,0.5]];portConstraint=eastwest;whiteSpace=wrap;html=1;" vertex="1" parent="vNEHH-DYMuVMHKYgHkYS-7">
          <mxGeometry y="26" width="260" height="26" as="geometry" />
        </mxCell>
        <mxCell id="vNEHH-DYMuVMHKYgHkYS-9" value="" style="line;strokeWidth=1;fillColor=none;align=left;verticalAlign=middle;spacingTop=-1;spacingLeft=3;spacingRight=3;rotatable=0;labelPosition=right;points=[];portConstraint=eastwest;strokeColor=inherit;" vertex="1" parent="vNEHH-DYMuVMHKYgHkYS-7">
          <mxGeometry y="52" width="260" height="8" as="geometry" />
        </mxCell>
        <mxCell id="vNEHH-DYMuVMHKYgHkYS-10" value="2. def" style="text;strokeColor=none;fillColor=none;align=left;verticalAlign=top;spacingLeft=4;spacingRight=4;overflow=hidden;rotatable=0;points=[[0,0.5],[1,0.5]];portConstraint=eastwest;whiteSpace=wrap;html=1;" vertex="1" parent="vNEHH-DYMuVMHKYgHkYS-7">
          <mxGeometry y="60" width="260" height="26" as="geometry" />
        </mxCell>
        <mxCell id="vNEHH-DYMuVMHKYgHkYS-11" value="" style="line;strokeWidth=1;fillColor=none;align=left;verticalAlign=middle;spacingTop=-1;spacingLeft=3;spacingRight=3;rotatable=0;labelPosition=right;points=[];portConstraint=eastwest;strokeColor=inherit;" vertex="1" parent="vNEHH-DYMuVMHKYgHkYS-7">
          <mxGeometry y="86" width="260" height="8" as="geometry" />
        </mxCell>
        <mxCell id="vNEHH-DYMuVMHKYgHkYS-12" value="2. ghi" style="text;strokeColor=none;fillColor=none;align=left;verticalAlign=top;spacingLeft=4;spacingRight=4;overflow=hidden;rotatable=0;points=[[0,0.5],[1,0.5]];portConstraint=eastwest;whiteSpace=wrap;html=1;" vertex="1" parent="vNEHH-DYMuVMHKYgHkYS-7">
          <mxGeometry y="94" width="260" height="26" as="geometry" />
        </mxCell>
        <mxCell id="vNEHH-DYMuVMHKYgHkYS-14" value="First most recent&lt;div&gt;commit to&lt;/div&gt;&lt;div&gt;cigar data&lt;/div&gt;" style="shape=parallelogram;html=1;strokeWidth=2;perimeter=parallelogramPerimeter;whiteSpace=wrap;rounded=1;arcSize=1;size=0.11538461538461539;fillColor=#e1d5e7;strokeColor=#9673a6;" vertex="1" parent="1">
          <mxGeometry x="500" y="480" width="130" height="60" as="geometry" />
        </mxCell>
        <mxCell id="vNEHH-DYMuVMHKYgHkYS-15" value="Local commit" style="shape=parallelogram;html=1;strokeWidth=2;perimeter=parallelogramPerimeter;whiteSpace=wrap;rounded=1;arcSize=12;size=0.15000000000000002;fillColor=#ffe6cc;strokeColor=#d79b00;" vertex="1" parent="1">
          <mxGeometry x="85" y="560" width="100" height="60" as="geometry" />
        </mxCell>
        <mxCell id="vNEHH-DYMuVMHKYgHkYS-16" value="&lt;div&gt;&lt;span style=&quot;background-color: transparent; color: light-dark(rgb(0, 0, 0), rgb(255, 255, 255));&quot;&gt;Do they match?&lt;/span&gt;&lt;/div&gt;" style="strokeWidth=2;html=1;shape=mxgraph.flowchart.decision;whiteSpace=wrap;" vertex="1" parent="1">
          <mxGeometry x="235" y="540" width="100" height="100" as="geometry" />
        </mxCell>
        <mxCell id="vNEHH-DYMuVMHKYgHkYS-17" value="First most recent&lt;div&gt;of all commits&lt;/div&gt;" style="shape=parallelogram;html=1;strokeWidth=2;perimeter=parallelogramPerimeter;whiteSpace=wrap;rounded=1;arcSize=1;size=0.11538461538461539;fillColor=#e1d5e7;strokeColor=#9673a6;" vertex="1" parent="1">
          <mxGeometry x="70" y="480" width="130" height="60" as="geometry" />
        </mxCell>
        <mxCell id="vNEHH-DYMuVMHKYgHkYS-19" style="edgeStyle=orthogonalEdgeStyle;rounded=0;orthogonalLoop=1;jettySize=auto;html=1;entryX=0;entryY=0.5;entryDx=0;entryDy=0;entryPerimeter=0;" edge="1" parent="1" source="vNEHH-DYMuVMHKYgHkYS-15" target="vNEHH-DYMuVMHKYgHkYS-16">
          <mxGeometry relative="1" as="geometry" />
        </mxCell>
        <mxCell id="vNEHH-DYMuVMHKYgHkYS-20" style="edgeStyle=orthogonalEdgeStyle;rounded=0;orthogonalLoop=1;jettySize=auto;html=1;entryX=0.5;entryY=0;entryDx=0;entryDy=0;entryPerimeter=0;" edge="1" parent="1" source="vNEHH-DYMuVMHKYgHkYS-17" target="vNEHH-DYMuVMHKYgHkYS-16">
          <mxGeometry relative="1" as="geometry" />
        </mxCell>
        <mxCell id="vNEHH-DYMuVMHKYgHkYS-22" value="First most recent&lt;div&gt;of all commits&lt;/div&gt;" style="shape=parallelogram;html=1;strokeWidth=2;perimeter=parallelogramPerimeter;whiteSpace=wrap;rounded=1;arcSize=1;size=0.11538461538461539;fillColor=#e1d5e7;strokeColor=#9673a6;" vertex="1" parent="1">
          <mxGeometry x="490" y="560" width="130" height="60" as="geometry" />
        </mxCell>
        <mxCell id="vNEHH-DYMuVMHKYgHkYS-23" value="&lt;div&gt;&lt;span style=&quot;background-color: transparent; color: light-dark(rgb(0, 0, 0), rgb(255, 255, 255));&quot;&gt;Do they match?&lt;/span&gt;&lt;/div&gt;" style="strokeWidth=2;html=1;shape=mxgraph.flowchart.decision;whiteSpace=wrap;" vertex="1" parent="1">
          <mxGeometry x="360" y="540" width="100" height="100" as="geometry" />
        </mxCell>
        <mxCell id="vNEHH-DYMuVMHKYgHkYS-24" style="edgeStyle=orthogonalEdgeStyle;rounded=0;orthogonalLoop=1;jettySize=auto;html=1;entryX=1;entryY=0.5;entryDx=0;entryDy=0;entryPerimeter=0;" edge="1" parent="1" source="vNEHH-DYMuVMHKYgHkYS-22" target="vNEHH-DYMuVMHKYgHkYS-23">
          <mxGeometry relative="1" as="geometry" />
        </mxCell>
        <mxCell id="vNEHH-DYMuVMHKYgHkYS-25" style="edgeStyle=orthogonalEdgeStyle;rounded=0;orthogonalLoop=1;jettySize=auto;html=1;entryX=0.5;entryY=0;entryDx=0;entryDy=0;entryPerimeter=0;" edge="1" parent="1" source="vNEHH-DYMuVMHKYgHkYS-14" target="vNEHH-DYMuVMHKYgHkYS-23">
          <mxGeometry relative="1" as="geometry" />
        </mxCell>
        <mxCell id="vNEHH-DYMuVMHKYgHkYS-27" value="" style="verticalLabelPosition=bottom;verticalAlign=top;html=1;shape=mxgraph.flowchart.collate;rotation=0;" vertex="1" parent="1">
          <mxGeometry x="320" y="680" width="60" height="60" as="geometry" />
        </mxCell>
        <mxCell id="vNEHH-DYMuVMHKYgHkYS-28" value="NO" style="edgeStyle=orthogonalEdgeStyle;rounded=0;orthogonalLoop=1;jettySize=auto;html=1;entryX=0;entryY=0.02;entryDx=0;entryDy=0;entryPerimeter=0;" edge="1" parent="1" source="vNEHH-DYMuVMHKYgHkYS-16" target="vNEHH-DYMuVMHKYgHkYS-27">
          <mxGeometry relative="1" as="geometry" />
        </mxCell>
        <mxCell id="vNEHH-DYMuVMHKYgHkYS-29" value="YES" style="edgeStyle=orthogonalEdgeStyle;rounded=0;orthogonalLoop=1;jettySize=auto;html=1;entryX=1;entryY=0.02;entryDx=0;entryDy=0;entryPerimeter=0;" edge="1" parent="1" source="vNEHH-DYMuVMHKYgHkYS-23" target="vNEHH-DYMuVMHKYgHkYS-27">
          <mxGeometry relative="1" as="geometry" />
        </mxCell>
        <mxCell id="vNEHH-DYMuVMHKYgHkYS-36" value="Do Nothing" style="strokeWidth=2;html=1;shape=mxgraph.flowchart.terminator;whiteSpace=wrap;" vertex="1" parent="1">
          <mxGeometry x="100" y="640" width="70" height="40" as="geometry" />
        </mxCell>
        <mxCell id="vNEHH-DYMuVMHKYgHkYS-37" value="Do Nothing" style="strokeWidth=2;html=1;shape=mxgraph.flowchart.terminator;whiteSpace=wrap;" vertex="1" parent="1">
          <mxGeometry x="510" y="640" width="70" height="40" as="geometry" />
        </mxCell>
        <mxCell id="vNEHH-DYMuVMHKYgHkYS-38" value="NO" style="edgeStyle=orthogonalEdgeStyle;rounded=0;orthogonalLoop=1;jettySize=auto;html=1;exitX=0.759;exitY=0.756;exitDx=0;exitDy=0;exitPerimeter=0;" edge="1" parent="1" source="vNEHH-DYMuVMHKYgHkYS-23" target="vNEHH-DYMuVMHKYgHkYS-37">
          <mxGeometry relative="1" as="geometry">
            <Array as="points">
              <mxPoint x="436" y="660" />
            </Array>
          </mxGeometry>
        </mxCell>
        <mxCell id="vNEHH-DYMuVMHKYgHkYS-39" value="YES" style="edgeStyle=orthogonalEdgeStyle;rounded=0;orthogonalLoop=1;jettySize=auto;html=1;exitX=0.226;exitY=0.745;exitDx=0;exitDy=0;exitPerimeter=0;" edge="1" parent="1" source="vNEHH-DYMuVMHKYgHkYS-16" target="vNEHH-DYMuVMHKYgHkYS-36">
          <mxGeometry relative="1" as="geometry">
            <Array as="points">
              <mxPoint x="258" y="660" />
            </Array>
          </mxGeometry>
        </mxCell>
        <mxCell id="vNEHH-DYMuVMHKYgHkYS-40" value="&quot;If the most recent of all commits&amp;nbsp;&lt;div&gt;and the local commit DO NOT match,&lt;div&gt;AND&lt;/div&gt;&lt;div&gt;the most recent commit to cigar data&lt;/div&gt;&lt;div&gt;and the most recent of all commits DO match&quot;&lt;/div&gt;&lt;/div&gt;" style="strokeWidth=2;html=1;shape=mxgraph.flowchart.annotation_2;align=left;labelPosition=right;pointerEvents=1;" vertex="1" parent="1">
          <mxGeometry x="410" y="700" width="50" height="60" as="geometry" />
        </mxCell>
        <mxCell id="vNEHH-DYMuVMHKYgHkYS-41" value="Trigger Data Reset" style="strokeWidth=2;html=1;shape=mxgraph.flowchart.terminator;whiteSpace=wrap;" vertex="1" parent="1">
          <mxGeometry x="300" y="770" width="100" height="60" as="geometry" />
        </mxCell>
        <mxCell id="vNEHH-DYMuVMHKYgHkYS-42" style="edgeStyle=orthogonalEdgeStyle;rounded=0;orthogonalLoop=1;jettySize=auto;html=1;entryX=0.5;entryY=0;entryDx=0;entryDy=0;entryPerimeter=0;" edge="1" parent="1" source="vNEHH-DYMuVMHKYgHkYS-27" target="vNEHH-DYMuVMHKYgHkYS-41">
          <mxGeometry relative="1" as="geometry" />
        </mxCell>
        <mxCell id="vNEHH-DYMuVMHKYgHkYS-57" value="" style="line;strokeWidth=4;html=1;perimeter=backbonePerimeter;points=[];outlineConnect=0;" vertex="1" parent="1">
          <mxGeometry x="70" y="400" width="560" height="10" as="geometry" />
        </mxCell>
        <mxCell id="vNEHH-DYMuVMHKYgHkYS-58" value="New method, with cigar data commit comparison" style="text;strokeColor=none;fillColor=none;html=1;fontSize=24;fontStyle=1;verticalAlign=middle;align=left;" vertex="1" parent="1">
          <mxGeometry x="70" y="420" width="560" height="40" as="geometry" />
        </mxCell>
        <mxCell id="vNEHH-DYMuVMHKYgHkYS-59" value="First most recent&lt;div&gt;of all commits&lt;/div&gt;" style="shape=parallelogram;html=1;strokeWidth=2;perimeter=parallelogramPerimeter;whiteSpace=wrap;rounded=1;arcSize=1;size=0.11538461538461539;fillColor=#e1d5e7;strokeColor=#9673a6;" vertex="1" parent="1">
          <mxGeometry x="70" y="130" width="130" height="60" as="geometry" />
        </mxCell>
        <mxCell id="vNEHH-DYMuVMHKYgHkYS-60" value="Local commit" style="shape=parallelogram;html=1;strokeWidth=2;perimeter=parallelogramPerimeter;whiteSpace=wrap;rounded=1;arcSize=12;size=0.15000000000000002;fillColor=#ffe6cc;strokeColor=#d79b00;" vertex="1" parent="1">
          <mxGeometry x="85" y="220" width="100" height="60" as="geometry" />
        </mxCell>
        <mxCell id="vNEHH-DYMuVMHKYgHkYS-61" value="&lt;div&gt;&lt;span style=&quot;background-color: transparent; color: light-dark(rgb(0, 0, 0), rgb(255, 255, 255));&quot;&gt;Do they match?&lt;/span&gt;&lt;/div&gt;" style="strokeWidth=2;html=1;shape=mxgraph.flowchart.decision;whiteSpace=wrap;" vertex="1" parent="1">
          <mxGeometry x="235" y="200" width="100" height="100" as="geometry" />
        </mxCell>
        <mxCell id="vNEHH-DYMuVMHKYgHkYS-62" style="edgeStyle=orthogonalEdgeStyle;rounded=0;orthogonalLoop=1;jettySize=auto;html=1;entryX=0.5;entryY=0;entryDx=0;entryDy=0;entryPerimeter=0;" edge="1" parent="1" source="vNEHH-DYMuVMHKYgHkYS-59" target="vNEHH-DYMuVMHKYgHkYS-61">
          <mxGeometry relative="1" as="geometry" />
        </mxCell>
        <mxCell id="vNEHH-DYMuVMHKYgHkYS-64" style="edgeStyle=orthogonalEdgeStyle;rounded=0;orthogonalLoop=1;jettySize=auto;html=1;entryX=0;entryY=0.5;entryDx=0;entryDy=0;entryPerimeter=0;" edge="1" parent="1" source="vNEHH-DYMuVMHKYgHkYS-60" target="vNEHH-DYMuVMHKYgHkYS-61">
          <mxGeometry relative="1" as="geometry" />
        </mxCell>
        <mxCell id="vNEHH-DYMuVMHKYgHkYS-65" value="Trigger Data Reset" style="strokeWidth=2;html=1;shape=mxgraph.flowchart.terminator;whiteSpace=wrap;" vertex="1" parent="1">
          <mxGeometry x="425" y="220" width="100" height="60" as="geometry" />
        </mxCell>
        <mxCell id="vNEHH-DYMuVMHKYgHkYS-66" value="NO" style="edgeStyle=orthogonalEdgeStyle;rounded=0;orthogonalLoop=1;jettySize=auto;html=1;entryX=0;entryY=0.5;entryDx=0;entryDy=0;entryPerimeter=0;" edge="1" parent="1" source="vNEHH-DYMuVMHKYgHkYS-61" target="vNEHH-DYMuVMHKYgHkYS-65">
          <mxGeometry relative="1" as="geometry" />
        </mxCell>
        <mxCell id="vNEHH-DYMuVMHKYgHkYS-67" value="Do Nothing" style="strokeWidth=2;html=1;shape=mxgraph.flowchart.terminator;whiteSpace=wrap;" vertex="1" parent="1">
          <mxGeometry x="250" y="350" width="70" height="40" as="geometry" />
        </mxCell>
        <mxCell id="vNEHH-DYMuVMHKYgHkYS-68" value="YES" style="edgeStyle=orthogonalEdgeStyle;rounded=0;orthogonalLoop=1;jettySize=auto;html=1;entryX=0.5;entryY=0;entryDx=0;entryDy=0;entryPerimeter=0;" edge="1" parent="1" source="vNEHH-DYMuVMHKYgHkYS-61" target="vNEHH-DYMuVMHKYgHkYS-67">
          <mxGeometry relative="1" as="geometry" />
        </mxCell>
        <mxCell id="vNEHH-DYMuVMHKYgHkYS-69" value="Current Auto-Update Method" style="text;strokeColor=none;fillColor=none;html=1;fontSize=24;fontStyle=1;verticalAlign=middle;align=left;" vertex="1" parent="1">
          <mxGeometry x="70" y="70" width="560" height="40" as="geometry" />
        </mxCell>
      </root>
    </mxGraphModel>
  </diagram>
</mxfile>
